<svg width="377" height="44" viewBox="0 0 377 44" fill="none" xmlns="http://www.w3.org/2000/svg">
<path d="M32.28 4.92V33H25.44V16.16L19.16 33H13.64L7.32 16.12V33H0.48V4.92H8.56L16.44 24.36L24.24 4.92H32.28ZM35.8388 21.8C35.8388 19.5067 36.2654 17.4933 37.1188 15.76C37.9988 14.0267 39.1854 12.6933 40.6788 11.76C42.1721 10.8267 43.8388 10.36 45.6788 10.36C47.2521 10.36 48.6254 10.68 49.7988 11.32C50.9988 11.96 51.9188 12.8 52.5588 13.84V10.68H59.3988V33H52.5588V29.84C51.8921 30.88 50.9588 31.72 49.7588 32.36C48.5854 33 47.2121 33.32 45.6388 33.32C43.8254 33.32 42.1721 32.8533 40.6788 31.92C39.1854 30.96 37.9988 29.6133 37.1188 27.88C36.2654 26.12 35.8388 24.0933 35.8388 21.8ZM52.5588 21.84C52.5588 20.1333 52.0788 18.7867 51.1188 17.8C50.1854 16.8133 49.0388 16.32 47.6788 16.32C46.3188 16.32 45.1588 16.8133 44.1988 17.8C43.2654 18.76 42.7988 20.0933 42.7988 21.8C42.7988 23.5067 43.2654 24.8667 44.1988 25.88C45.1588 26.8667 46.3188 27.36 47.6788 27.36C49.0388 27.36 50.1854 26.8667 51.1188 25.88C52.0788 24.8933 52.5588 23.5467 52.5588 21.84ZM71.1872 14.4C71.9872 13.1733 72.9872 12.2133 74.1872 11.52C75.3872 10.8 76.7205 10.44 78.1872 10.44V17.68H76.3072C74.6005 17.68 73.3205 18.0533 72.4672 18.8C71.6139 19.52 71.1872 20.8 71.1872 22.64V33H64.3472V10.68H71.1872V14.4ZM84.8966 8.36C83.6966 8.36 82.7099 8.01333 81.9366 7.32C81.1899 6.6 80.8166 5.72 80.8166 4.68C80.8166 3.61333 81.1899 2.73333 81.9366 2.04C82.7099 1.32 83.6966 0.959998 84.8966 0.959998C86.0699 0.959998 87.0299 1.32 87.7766 2.04C88.5499 2.73333 88.9366 3.61333 88.9366 4.68C88.9366 5.72 88.5499 6.6 87.7766 7.32C87.0299 8.01333 86.0699 8.36 84.8966 8.36ZM88.2966 10.68V33H81.4566V10.68H88.2966ZM106.853 10.44C109.467 10.44 111.547 11.2933 113.093 13C114.667 14.68 115.453 17 115.453 19.96V33H108.653V20.88C108.653 19.3867 108.267 18.2267 107.493 17.4C106.72 16.5733 105.68 16.16 104.373 16.16C103.067 16.16 102.027 16.5733 101.253 17.4C100.48 18.2267 100.093 19.3867 100.093 20.88V33H93.2534V10.68H100.093V13.64C100.787 12.6533 101.72 11.88 102.893 11.32C104.067 10.7333 105.387 10.44 106.853 10.44ZM130.367 33.32C128.18 33.32 126.207 32.8533 124.447 31.92C122.713 30.9867 121.34 29.6533 120.327 27.92C119.34 26.1867 118.847 24.16 118.847 21.84C118.847 19.5467 119.353 17.5333 120.367 15.8C121.38 14.04 122.767 12.6933 124.527 11.76C126.287 10.8267 128.26 10.36 130.447 10.36C132.633 10.36 134.607 10.8267 136.367 11.76C138.127 12.6933 139.513 14.04 140.527 15.8C141.54 17.5333 142.047 19.5467 142.047 21.84C142.047 24.1333 141.527 26.16 140.487 27.92C139.473 29.6533 138.073 30.9867 136.287 31.92C134.527 32.8533 132.553 33.32 130.367 33.32ZM130.367 27.4C131.673 27.4 132.78 26.92 133.687 25.96C134.62 25 135.087 23.6267 135.087 21.84C135.087 20.0533 134.633 18.68 133.727 17.72C132.847 16.76 131.753 16.28 130.447 16.28C129.113 16.28 128.007 16.76 127.127 17.72C126.247 18.6533 125.807 20.0267 125.807 21.84C125.807 23.6267 126.233 25 127.087 25.96C127.967 26.92 129.06 27.4 130.367 27.4ZM154.755 33.32C152.809 33.32 151.075 32.9867 149.555 32.32C148.035 31.6533 146.835 30.7467 145.955 29.6C145.075 28.4267 144.582 27.12 144.475 25.68H151.235C151.315 26.4533 151.675 27.08 152.315 27.56C152.955 28.04 153.742 28.28 154.675 28.28C155.529 28.28 156.182 28.12 156.635 27.8C157.115 27.4533 157.355 27.0133 157.355 26.48C157.355 25.84 157.022 25.3733 156.355 25.08C155.689 24.76 154.609 24.4133 153.115 24.04C151.515 23.6667 150.182 23.28 149.115 22.88C148.049 22.4533 147.129 21.8 146.355 20.92C145.582 20.0133 145.195 18.8 145.195 17.28C145.195 16 145.542 14.84 146.235 13.8C146.955 12.7333 147.995 11.8933 149.355 11.28C150.742 10.6667 152.382 10.36 154.275 10.36C157.075 10.36 159.275 11.0533 160.875 12.44C162.502 13.8267 163.435 15.6667 163.675 17.96H157.355C157.249 17.1867 156.902 16.5733 156.315 16.12C155.755 15.6667 155.009 15.44 154.075 15.44C153.275 15.44 152.662 15.6 152.235 15.92C151.809 16.2133 151.595 16.6267 151.595 17.16C151.595 17.8 151.929 18.28 152.595 18.6C153.289 18.92 154.355 19.24 155.795 19.56C157.449 19.9867 158.795 20.4133 159.835 20.84C160.875 21.24 161.782 21.9067 162.555 22.84C163.355 23.7467 163.769 24.9733 163.795 26.52C163.795 27.8267 163.422 29 162.675 30.04C161.955 31.0533 160.902 31.8533 159.515 32.44C158.155 33.0267 156.569 33.32 154.755 33.32Z" fill="#FFC5E1"/>
<path d="M194.737 4.92V10.4H183.297V16.32H191.857V21.64H183.297V33H176.457V4.92H194.737ZM205.172 3.4V33H198.332V3.4H205.172ZM208.768 21.8C208.768 19.5067 209.195 17.4933 210.048 15.76C210.928 14.0267 212.115 12.6933 213.608 11.76C215.102 10.8267 216.768 10.36 218.608 10.36C220.182 10.36 221.555 10.68 222.728 11.32C223.928 11.96 224.848 12.8 225.488 13.84V10.68H232.328V33H225.488V29.84C224.822 30.88 223.888 31.72 222.688 32.36C221.515 33 220.142 33.32 218.568 33.32C216.755 33.32 215.102 32.8533 213.608 31.92C212.115 30.96 210.928 29.6133 210.048 27.88C209.195 26.12 208.768 24.0933 208.768 21.8ZM225.488 21.84C225.488 20.1333 225.008 18.7867 224.048 17.8C223.115 16.8133 221.968 16.32 220.608 16.32C219.248 16.32 218.088 16.8133 217.128 17.8C216.195 18.76 215.728 20.0933 215.728 21.8C215.728 23.5067 216.195 24.8667 217.128 25.88C218.088 26.8667 219.248 27.36 220.608 27.36C221.968 27.36 223.115 26.8667 224.048 25.88C225.008 24.8933 225.488 23.5467 225.488 21.84ZM250.877 10.44C253.49 10.44 255.57 11.2933 257.117 13C258.69 14.68 259.477 17 259.477 19.96V33H252.677V20.88C252.677 19.3867 252.29 18.2267 251.517 17.4C250.744 16.5733 249.704 16.16 248.397 16.16C247.09 16.16 246.05 16.5733 245.277 17.4C244.504 18.2267 244.117 19.3867 244.117 20.88V33H237.277V10.68H244.117V13.64C244.81 12.6533 245.744 11.88 246.917 11.32C248.09 10.7333 249.41 10.44 250.877 10.44ZM272.71 10.36C274.283 10.36 275.657 10.68 276.83 11.32C278.03 11.96 278.95 12.8 279.59 13.84V10.68H286.43V32.96C286.43 35.0133 286.017 36.8667 285.19 38.52C284.39 40.2 283.15 41.5333 281.47 42.52C279.817 43.5067 277.75 44 275.27 44C271.963 44 269.283 43.2133 267.23 41.64C265.177 40.0933 264.003 37.9867 263.71 35.32H270.47C270.683 36.1733 271.19 36.84 271.99 37.32C272.79 37.8267 273.777 38.08 274.95 38.08C276.363 38.08 277.483 37.6667 278.31 36.84C279.163 36.04 279.59 34.7467 279.59 32.96V29.8C278.923 30.84 278.003 31.6933 276.83 32.36C275.657 33 274.283 33.32 272.71 33.32C270.87 33.32 269.203 32.8533 267.71 31.92C266.217 30.96 265.03 29.6133 264.15 27.88C263.297 26.12 262.87 24.0933 262.87 21.8C262.87 19.5067 263.297 17.4933 264.15 15.76C265.03 14.0267 266.217 12.6933 267.71 11.76C269.203 10.8267 270.87 10.36 272.71 10.36ZM279.59 21.84C279.59 20.1333 279.11 18.7867 278.15 17.8C277.217 16.8133 276.07 16.32 274.71 16.32C273.35 16.32 272.19 16.8133 271.23 17.8C270.297 18.76 269.83 20.0933 269.83 21.8C269.83 23.5067 270.297 24.8667 271.23 25.88C272.19 26.8667 273.35 27.36 274.71 27.36C276.07 27.36 277.217 26.8667 278.15 25.88C279.11 24.8933 279.59 23.5467 279.59 21.84ZM301.538 33.32C299.352 33.32 297.378 32.8533 295.618 31.92C293.885 30.9867 292.512 29.6533 291.498 27.92C290.512 26.1867 290.018 24.16 290.018 21.84C290.018 19.5467 290.525 17.5333 291.538 15.8C292.552 14.04 293.938 12.6933 295.698 11.76C297.458 10.8267 299.432 10.36 301.618 10.36C303.805 10.36 305.778 10.8267 307.538 11.76C309.298 12.6933 310.685 14.04 311.698 15.8C312.712 17.5333 313.218 19.5467 313.218 21.84C313.218 24.1333 312.698 26.16 311.658 27.92C310.645 29.6533 309.245 30.9867 307.458 31.92C305.698 32.8533 303.725 33.32 301.538 33.32ZM301.538 27.4C302.845 27.4 303.952 26.92 304.858 25.96C305.792 25 306.258 23.6267 306.258 21.84C306.258 20.0533 305.805 18.68 304.898 17.72C304.018 16.76 302.925 16.28 301.618 16.28C300.285 16.28 299.178 16.76 298.298 17.72C297.418 18.6533 296.978 20.0267 296.978 21.84C296.978 23.6267 297.405 25 298.258 25.96C299.138 26.92 300.232 27.4 301.538 27.4ZM328.047 16.36H324.367V33H317.527V16.36H315.047V10.68H317.527V10.04C317.527 7.29333 318.314 5.21333 319.887 3.8C321.461 2.36 323.767 1.64 326.807 1.64C327.314 1.64 327.687 1.65333 327.927 1.68V7.48C326.621 7.4 325.701 7.58667 325.167 8.04C324.634 8.49333 324.367 9.30666 324.367 10.48V10.68H328.047V16.36ZM329.901 21.8C329.901 19.5067 330.328 17.4933 331.181 15.76C332.061 14.0267 333.248 12.6933 334.741 11.76C336.235 10.8267 337.901 10.36 339.741 10.36C341.315 10.36 342.688 10.68 343.861 11.32C345.061 11.96 345.981 12.8 346.621 13.84V10.68H353.461V33H346.621V29.84C345.955 30.88 345.021 31.72 343.821 32.36C342.648 33 341.275 33.32 339.701 33.32C337.888 33.32 336.235 32.8533 334.741 31.92C333.248 30.96 332.061 29.6133 331.181 27.88C330.328 26.12 329.901 24.0933 329.901 21.8ZM346.621 21.84C346.621 20.1333 346.141 18.7867 345.181 17.8C344.248 16.8133 343.101 16.32 341.741 16.32C340.381 16.32 339.221 16.8133 338.261 17.8C337.328 18.76 336.861 20.0933 336.861 21.8C336.861 23.5067 337.328 24.8667 338.261 25.88C339.221 26.8667 340.381 27.36 341.741 27.36C343.101 27.36 344.248 26.8667 345.181 25.88C346.141 24.8933 346.621 23.5467 346.621 21.84ZM367.49 33.32C365.543 33.32 363.81 32.9867 362.29 32.32C360.77 31.6533 359.57 30.7467 358.69 29.6C357.81 28.4267 357.316 27.12 357.21 25.68H363.97C364.05 26.4533 364.41 27.08 365.05 27.56C365.69 28.04 366.476 28.28 367.41 28.28C368.263 28.28 368.916 28.12 369.37 27.8C369.85 27.4533 370.09 27.0133 370.09 26.48C370.09 25.84 369.756 25.3733 369.09 25.08C368.423 24.76 367.343 24.4133 365.85 24.04C364.25 23.6667 362.916 23.28 361.85 22.88C360.783 22.4533 359.863 21.8 359.09 20.92C358.316 20.0133 357.93 18.8 357.93 17.28C357.93 16 358.276 14.84 358.97 13.8C359.69 12.7333 360.73 11.8933 362.09 11.28C363.476 10.6667 365.116 10.36 367.01 10.36C369.81 10.36 372.01 11.0533 373.61 12.44C375.236 13.8267 376.17 15.6667 376.41 17.96H370.09C369.983 17.1867 369.636 16.5733 369.05 16.12C368.49 15.6667 367.743 15.44 366.81 15.44C366.01 15.44 365.396 15.6 364.97 15.92C364.543 16.2133 364.33 16.6267 364.33 17.16C364.33 17.8 364.663 18.28 365.33 18.6C366.023 18.92 367.09 19.24 368.53 19.56C370.183 19.9867 371.53 20.4133 372.57 20.84C373.61 21.24 374.516 21.9067 375.29 22.84C376.09 23.7467 376.503 24.9733 376.53 26.52C376.53 27.8267 376.156 29 375.41 30.04C374.69 31.0533 373.636 31.8533 372.25 32.44C370.89 33.0267 369.303 33.32 367.49 33.32Z" fill="#E9E9E9"/>
</svg>
